<?xml version="1.0" standalone="no"?>
<!DOCTYPE svg PUBLIC "-//W3C//DTD SVG 20010904//EN"
 "http://www.w3.org/TR/2001/REC-SVG-20010904/DTD/svg10.dtd">
<svg version="1.0" xmlns="http://www.w3.org/2000/svg"
 width="668.000000pt" height="668.000000pt" viewBox="0 0 668.000000 668.000000"
 preserveAspectRatio="xMidYMid meet">

<g transform="translate(0.000000,668.000000) scale(0.100000,-0.100000)"
fill="#000000" stroke="none">
<path d="M1998 6354 c-165 -39 -304 -171 -359 -338 -19 -56 -20 -70 -9 -96 8
-18 23 -33 39 -38 14 -4 767 -7 1673 -7 1635 0 1647 0 1662 20 63 83 -84 339
-240 418 -118 60 -55 57 -1440 56 -1046 -1 -1279 -3 -1326 -15z"/>
<path d="M1682 5683 c-36 -7 -53 -45 -62 -145 -36 -365 22 -693 176 -999 134
-269 270 -437 589 -727 88 -81 212 -196 275 -257 63 -61 137 -130 163 -153
l48 -43 -55 -64 c-54 -60 -187 -188 -506 -486 -187 -175 -306 -308 -393 -439
-197 -299 -294 -607 -304 -973 -8 -258 15 -413 62 -431 9 -3 54 -6 101 -6 79
0 85 1 100 26 15 23 16 37 6 132 -20 178 -9 442 23 562 37 140 76 252 114 330
115 238 209 364 431 575 387 366 585 564 601 600 27 58 27 282 0 340 -18 41
-35 57 -440 418 -232 207 -360 349 -491 547 -108 164 -189 371 -226 581 -21
119 -23 331 -5 476 18 144 19 143 -98 142 -47 -1 -96 -4 -109 -6z"/>
<path d="M4762 5662 c-17 -17 -18 -34 -14 -200 7 -280 -24 -495 -103 -705 -43
-117 -76 -179 -165 -312 -123 -184 -205 -275 -390 -438 -225 -198 -491 -450
-508 -481 -14 -25 -17 -58 -17 -161 0 -118 2 -135 25 -180 28 -58 136 -168
482 -493 247 -232 370 -369 459 -513 99 -160 168 -337 206 -534 19 -101 25
-429 9 -571 l-9 -80 36 -17 c24 -12 61 -17 119 -17 71 0 88 3 102 19 25 28 39
205 33 431 -4 153 -9 205 -32 304 -64 283 -128 442 -258 638 -104 157 -207
268 -559 606 -290 278 -388 379 -388 400 0 16 266 272 563 542 240 218 402
434 520 695 131 290 181 643 140 989 -3 33 -13 57 -29 73 -21 21 -32 23 -114
23 -74 0 -93 -3 -108 -18z"/>
<path d="M3279 4455 c-15 -8 -30 -22 -34 -32 -4 -10 -7 -461 -5 -1003 2 -1038
1 -1027 45 -1044 40 -15 77 -6 110 27 l34 34 -2 986 -2 986 -29 30 c-33 35
-73 40 -117 16z"/>
<path d="M3245 2208 c-32 -18 -1173 -1164 -1195 -1200 -11 -18 -20 -36 -20
-39 0 -4 449 -5 998 -3 548 2 1135 0 1305 -4 211 -5 307 -4 307 3 0 6 -21 31
-46 55 -25 25 -106 113 -179 195 -73 83 -152 168 -176 189 -24 21 -143 136
-264 255 -393 387 -539 523 -580 542 -45 21 -120 24 -150 7z"/>
<path d="M1652 763 c-7 -2 -19 -18 -28 -35 -20 -39 -6 -107 42 -199 77 -145
205 -238 357 -259 51 -6 518 -10 1327 -10 1217 0 1250 0 1312 20 160 49 315
205 354 356 14 51 13 58 -3 92 l-18 37 -1665 2 c-916 1 -1671 -1 -1678 -4z"/>
</g>
</svg>
